<mxfile host="app.diagrams.net" modified="2024-05-29T07:56:52.428Z" agent="Mozilla/5.0 (Windows NT 10.0; Win64; x64) AppleWebKit/537.36 (KHTML, like Gecko) Chrome/125.0.0.0 Safari/537.36" etag="Kk-KHkXEFI5xl5JdV8ZB" version="24.3.1" type="device">
  <diagram id="R2lEEEUBdFMjLlhIrx00" name="Page-1">
    <mxGraphModel dx="4012" dy="1413" grid="1" gridSize="10" guides="1" tooltips="1" connect="1" arrows="1" fold="1" page="1" pageScale="1" pageWidth="850" pageHeight="1100" math="0" shadow="0" extFonts="Permanent Marker^https://fonts.googleapis.com/css?family=Permanent+Marker">
      <root>
        <mxCell id="0" />
        <mxCell id="1" parent="0" />
        <mxCell id="IeWaTaDR5QfWAJEZIo10-492" style="edgeStyle=orthogonalEdgeStyle;rounded=0;orthogonalLoop=1;jettySize=auto;html=1;" edge="1" parent="1" target="IeWaTaDR5QfWAJEZIo10-495">
          <mxGeometry relative="1" as="geometry">
            <mxPoint x="240" y="95" as="sourcePoint" />
          </mxGeometry>
        </mxCell>
        <mxCell id="IeWaTaDR5QfWAJEZIo10-493" value="Начало" style="rounded=1;whiteSpace=wrap;html=1;" vertex="1" parent="1">
          <mxGeometry x="180" y="70" width="120" height="30" as="geometry" />
        </mxCell>
        <mxCell id="IeWaTaDR5QfWAJEZIo10-494" style="edgeStyle=orthogonalEdgeStyle;rounded=0;orthogonalLoop=1;jettySize=auto;html=1;" edge="1" parent="1" source="IeWaTaDR5QfWAJEZIo10-495" target="IeWaTaDR5QfWAJEZIo10-498">
          <mxGeometry relative="1" as="geometry">
            <mxPoint x="240" y="235" as="targetPoint" />
          </mxGeometry>
        </mxCell>
        <mxCell id="IeWaTaDR5QfWAJEZIo10-495" value="Основная страница" style="rounded=0;whiteSpace=wrap;html=1;" vertex="1" parent="1">
          <mxGeometry x="180" y="145" width="120" height="60" as="geometry" />
        </mxCell>
        <mxCell id="IeWaTaDR5QfWAJEZIo10-497" style="edgeStyle=orthogonalEdgeStyle;rounded=0;orthogonalLoop=1;jettySize=auto;html=1;entryX=0.5;entryY=0;entryDx=0;entryDy=0;" edge="1" parent="1" source="IeWaTaDR5QfWAJEZIo10-498" target="IeWaTaDR5QfWAJEZIo10-510">
          <mxGeometry relative="1" as="geometry" />
        </mxCell>
        <mxCell id="IeWaTaDR5QfWAJEZIo10-498" value="Бронирование&lt;div&gt;&amp;nbsp;места&lt;/div&gt;" style="rounded=0;whiteSpace=wrap;html=1;" vertex="1" parent="1">
          <mxGeometry x="180" y="235" width="120" height="60" as="geometry" />
        </mxCell>
        <mxCell id="IeWaTaDR5QfWAJEZIo10-499" value="Конец" style="rounded=1;whiteSpace=wrap;html=1;" vertex="1" parent="1">
          <mxGeometry x="180" y="965" width="120" height="40" as="geometry" />
        </mxCell>
        <mxCell id="IeWaTaDR5QfWAJEZIo10-500" style="edgeStyle=orthogonalEdgeStyle;rounded=0;orthogonalLoop=1;jettySize=auto;html=1;" edge="1" parent="1" source="IeWaTaDR5QfWAJEZIo10-501" target="IeWaTaDR5QfWAJEZIo10-499">
          <mxGeometry relative="1" as="geometry" />
        </mxCell>
        <mxCell id="IeWaTaDR5QfWAJEZIo10-501" value="Подтверждение заявки" style="shape=process;whiteSpace=wrap;html=1;backgroundOutline=1;" vertex="1" parent="1">
          <mxGeometry x="180" y="825" width="120" height="60" as="geometry" />
        </mxCell>
        <mxCell id="IeWaTaDR5QfWAJEZIo10-503" style="edgeStyle=orthogonalEdgeStyle;rounded=0;orthogonalLoop=1;jettySize=auto;html=1;exitX=0.003;exitY=0.508;exitDx=0;exitDy=0;exitPerimeter=0;entryX=1;entryY=0.5;entryDx=0;entryDy=0;" edge="1" parent="1" source="IeWaTaDR5QfWAJEZIo10-507" target="IeWaTaDR5QfWAJEZIo10-541">
          <mxGeometry relative="1" as="geometry">
            <mxPoint x="130" y="615" as="targetPoint" />
            <Array as="points">
              <mxPoint x="-10" y="746" />
              <mxPoint x="-70" y="745" />
            </Array>
            <mxPoint x="140" y="841" as="sourcePoint" />
          </mxGeometry>
        </mxCell>
        <mxCell id="IeWaTaDR5QfWAJEZIo10-504" value="нет" style="edgeLabel;html=1;align=center;verticalAlign=middle;resizable=0;points=[];" vertex="1" connectable="0" parent="IeWaTaDR5QfWAJEZIo10-503">
          <mxGeometry x="-0.0403" y="2" relative="1" as="geometry">
            <mxPoint y="10" as="offset" />
          </mxGeometry>
        </mxCell>
        <mxCell id="IeWaTaDR5QfWAJEZIo10-505" style="edgeStyle=orthogonalEdgeStyle;rounded=0;orthogonalLoop=1;jettySize=auto;html=1;entryX=1;entryY=0.5;entryDx=0;entryDy=0;" edge="1" parent="1" source="IeWaTaDR5QfWAJEZIo10-507" target="IeWaTaDR5QfWAJEZIo10-501">
          <mxGeometry relative="1" as="geometry">
            <mxPoint x="370" y="875" as="targetPoint" />
            <Array as="points">
              <mxPoint x="360" y="745" />
              <mxPoint x="360" y="855" />
            </Array>
          </mxGeometry>
        </mxCell>
        <mxCell id="IeWaTaDR5QfWAJEZIo10-506" value="да" style="edgeLabel;html=1;align=center;verticalAlign=middle;resizable=0;points=[];" vertex="1" connectable="0" parent="IeWaTaDR5QfWAJEZIo10-505">
          <mxGeometry x="-0.1453" relative="1" as="geometry">
            <mxPoint as="offset" />
          </mxGeometry>
        </mxCell>
        <mxCell id="IeWaTaDR5QfWAJEZIo10-507" value="Есть ли свободные места" style="rhombus;whiteSpace=wrap;html=1;" vertex="1" parent="1">
          <mxGeometry x="140" y="695" width="200" height="100" as="geometry" />
        </mxCell>
        <mxCell id="IeWaTaDR5QfWAJEZIo10-542" style="edgeStyle=orthogonalEdgeStyle;rounded=0;orthogonalLoop=1;jettySize=auto;html=1;entryX=0.5;entryY=0;entryDx=0;entryDy=0;" edge="1" parent="1" source="IeWaTaDR5QfWAJEZIo10-508" target="IeWaTaDR5QfWAJEZIo10-507">
          <mxGeometry relative="1" as="geometry" />
        </mxCell>
        <mxCell id="IeWaTaDR5QfWAJEZIo10-508" value="Обработка заявки" style="shape=parallelogram;perimeter=parallelogramPerimeter;whiteSpace=wrap;html=1;fixedSize=1;" vertex="1" parent="1">
          <mxGeometry x="170" y="555" width="140" height="60" as="geometry" />
        </mxCell>
        <mxCell id="IeWaTaDR5QfWAJEZIo10-509" style="edgeStyle=orthogonalEdgeStyle;rounded=0;orthogonalLoop=1;jettySize=auto;html=1;entryX=0.5;entryY=0;entryDx=0;entryDy=0;" edge="1" parent="1" source="IeWaTaDR5QfWAJEZIo10-510" target="IeWaTaDR5QfWAJEZIo10-512">
          <mxGeometry relative="1" as="geometry" />
        </mxCell>
        <mxCell id="IeWaTaDR5QfWAJEZIo10-510" value="Открытие модального окна с бронью" style="rounded=0;whiteSpace=wrap;html=1;" vertex="1" parent="1">
          <mxGeometry x="180" y="335" width="120" height="60" as="geometry" />
        </mxCell>
        <mxCell id="IeWaTaDR5QfWAJEZIo10-511" style="edgeStyle=orthogonalEdgeStyle;rounded=0;orthogonalLoop=1;jettySize=auto;html=1;entryX=0.5;entryY=0;entryDx=0;entryDy=0;" edge="1" parent="1" source="IeWaTaDR5QfWAJEZIo10-512" target="IeWaTaDR5QfWAJEZIo10-508">
          <mxGeometry relative="1" as="geometry" />
        </mxCell>
        <mxCell id="IeWaTaDR5QfWAJEZIo10-512" value="Ввод контактной информации" style="rounded=0;whiteSpace=wrap;html=1;" vertex="1" parent="1">
          <mxGeometry x="180" y="445" width="120" height="60" as="geometry" />
        </mxCell>
        <mxCell id="IeWaTaDR5QfWAJEZIo10-531" style="edgeStyle=orthogonalEdgeStyle;rounded=0;orthogonalLoop=1;jettySize=auto;html=1;entryX=0;entryY=0.5;entryDx=0;entryDy=0;exitX=0.003;exitY=0.508;exitDx=0;exitDy=0;exitPerimeter=0;" edge="1" parent="1" source="IeWaTaDR5QfWAJEZIo10-535">
          <mxGeometry relative="1" as="geometry">
            <mxPoint x="720" y="675" as="targetPoint" />
            <Array as="points">
              <mxPoint x="520" y="786" />
              <mxPoint x="520" y="675" />
            </Array>
            <mxPoint x="670" y="781" as="sourcePoint" />
          </mxGeometry>
        </mxCell>
        <mxCell id="IeWaTaDR5QfWAJEZIo10-532" value="нет" style="edgeLabel;html=1;align=center;verticalAlign=middle;resizable=0;points=[];" vertex="1" connectable="0" parent="IeWaTaDR5QfWAJEZIo10-531">
          <mxGeometry x="-0.0403" y="2" relative="1" as="geometry">
            <mxPoint y="10" as="offset" />
          </mxGeometry>
        </mxCell>
        <mxCell id="IeWaTaDR5QfWAJEZIo10-541" value="Сообщение об отказе" style="rounded=0;whiteSpace=wrap;html=1;" vertex="1" parent="1">
          <mxGeometry x="-160" y="715" width="120" height="60" as="geometry" />
        </mxCell>
      </root>
    </mxGraphModel>
  </diagram>
</mxfile>
